<svg width="1024" height="1024" viewBox="0 0 1024 1024" xmlns="http://www.w3.org/2000/svg">
  <!-- Background Circle -->
  <circle cx="512" cy="512" r="512" fill="#667eea"/>
  
  <!-- Gradient Background -->
  <defs>
    <linearGradient id="grad1" x1="0%" y1="0%" x2="100%" y2="100%">
      <stop offset="0%" style="stop-color:#667eea;stop-opacity:1" />
      <stop offset="100%" style="stop-color:#764ba2;stop-opacity:1" />
    </linearGradient>
  </defs>
  
  <!-- Main Circle Background -->
  <circle cx="512" cy="512" r="450" fill="url(#grad1)"/>
  
  <!-- Play Button (Center) -->
  <path d="M 380 320 L 380 704 L 700 512 Z" fill="#FFFFFF" opacity="0.95"/>
  
  <!-- Music Note (Top Right) -->
  <circle cx="750" cy="350" r="35" fill="#FFFFFF" opacity="0.9"/>
  <path d="M 750 385 L 750 500 L 800 520" stroke="#FFFFFF" stroke-width="25" fill="none" stroke-linecap="round" opacity="0.9"/>
  <path d="M 800 520 L 800 600" stroke="#FFFFFF" stroke-width="25" fill="none" stroke-linecap="round" opacity="0.9"/>
  
  <!-- Camera Icon (Top Left) -->
  <rect x="250" y="300" width="120" height="90" rx="8" fill="#FFFFFF" opacity="0.9"/>
  <circle cx="310" cy="345" r="20" fill="#667eea"/>
  <rect x="340" y="320" width="20" height="15" rx="2" fill="#FFFFFF" opacity="0.9"/>
  
  <!-- Film Strip (Bottom Left) -->
  <rect x="280" y="650" width="180" height="80" rx="5" fill="#FFFFFF" opacity="0.9"/>
  <rect x="300" y="660" width="25" height="25" rx="2" fill="#667eea"/>
  <rect x="340" y="660" width="25" height="25" rx="2" fill="#667eea"/>
  <rect x="380" y="660" width="25" height="25" rx="2" fill="#667eea"/>
  <rect x="420" y="660" width="25" height="25" rx="2" fill="#667eea"/>
  
  <!-- Decorative Ring -->
  <circle cx="512" cy="512" r="400" fill="none" stroke="#FFFFFF" stroke-width="8" opacity="0.3"/>
</svg>

